# Blender v2.72 (sub 0) OBJ File: 'ship.blend'
# www.blender.org
o Boom_Cylinder.004
v 0.005676 1.826611 -12.085851
v 0.005676 1.826611 -4.095328
v 0.021081 1.825094 -12.085851
v 0.021081 1.825094 -4.095328
v 0.035894 1.820601 -12.085851
v 0.035894 1.820600 -4.095328
v 0.049545 1.813304 -12.085851
v 0.049545 1.813303 -4.095328
v 0.061511 1.803484 -12.085851
v 0.061511 1.803483 -4.095328
v 0.071331 1.791518 -12.085851
v 0.071331 1.791518 -4.095328
v 0.078628 1.777866 -12.085851
v 0.078628 1.777866 -4.095328
v 0.083121 1.763054 -12.127832
v 0.083121 1.763053 -4.095328
v 0.084638 1.747649 -12.085851
v 0.084638 1.747649 -4.095328
v 0.083121 1.732244 -12.085851
v 0.083121 1.732244 -4.095328
v 0.078628 1.717431 -12.085851
v 0.078628 1.717431 -4.095328
v 0.071331 1.703780 -12.085851
v 0.071331 1.703779 -4.095328
v 0.061511 1.691814 -12.085851
v 0.061511 1.691814 -4.095328
v 0.049545 1.681994 -12.085851
v 0.049545 1.681994 -4.095328
v 0.035894 1.674697 -12.085851
v 0.035894 1.674697 -4.095328
v 0.021081 1.670204 -12.085851
v 0.021081 1.670203 -4.095328
v 0.005676 1.668687 -12.085851
v 0.005676 1.668686 -4.095328
v -0.009729 1.670204 -12.085851
v -0.009729 1.670203 -4.095328
v -0.024542 1.674697 -12.085851
v -0.024542 1.674697 -4.095328
v -0.038193 1.681994 -12.085851
v -0.038193 1.681994 -4.095328
v -0.050159 1.691814 -12.085851
v -0.050159 1.691814 -4.095328
v -0.059979 1.703780 -12.085851
v -0.059979 1.703779 -4.095328
v -0.067276 1.717431 -12.085851
v -0.067276 1.717431 -4.095328
v -0.071769 1.732244 -12.127832
v -0.071769 1.732244 -4.095328
v -0.073286 1.747649 -12.085851
v -0.073286 1.747649 -4.095328
v -0.071769 1.763054 -12.085851
v -0.071769 1.763053 -4.095328
v -0.067276 1.777867 -12.085851
v -0.067276 1.777866 -4.095328
v -0.059979 1.791518 -12.085851
v -0.059979 1.791518 -4.095328
v -0.050159 1.803484 -12.085851
v -0.050159 1.803483 -4.095328
v -0.038193 1.813304 -12.085851
v -0.038193 1.813303 -4.095328
v -0.024541 1.820601 -12.085851
v -0.024541 1.820600 -4.095328
v -0.009729 1.825094 -12.085851
v -0.009729 1.825094 -4.095328
v 0.005676 1.747649 -12.127832
vt 0.526322 0.497483
vt 0.564665 0.997374
vt 0.526322 0.997374
vt 0.564665 0.497483
vt 0.600783 0.997374
vt 0.600783 0.497483
vt 0.633288 0.997374
vt 0.633288 0.497483
vt 0.660932 0.997374
vt 0.660932 0.497483
vt 0.682651 0.997374
vt 0.352619 1.000000
vt 0.324976 0.500110
vt 0.352619 0.500110
vt 0.324976 1.000000
vt 0.292470 0.497483
vt 0.292470 1.000000
vt 0.256352 0.500110
vt 0.256352 1.000000
vt 0.218010 0.500110
vt 0.218010 1.000000
vt 0.178916 0.500110
vt 0.178916 1.000000
vt 0.140573 0.500110
vt 0.140573 1.000000
vt 0.104456 0.500110
vt 0.104456 1.000000
vt 0.071950 0.500110
vt 0.071950 1.000000
vt 0.044307 0.500110
vt 0.044307 1.000000
vt 0.022587 0.500110
vt 0.022587 1.000000
vt 0.007627 0.500110
vt 0.007627 1.000000
vt 0.000000 0.500110
vt 1.000000 1.000000
vt 0.985039 0.500110
vt 1.000000 0.500110
vt 0.985039 1.000000
vt 0.963320 0.500110
vt 0.963320 1.000000
vt 0.935677 0.500110
vt 0.935677 1.000000
vt 0.903171 0.500110
vt 0.903171 1.000000
vt 0.867053 0.500110
vt 0.867053 1.000000
vt 0.828711 0.497483
vt 0.828711 1.000000
vt 0.789617 0.500110
vt 0.789617 1.000000
vt 0.751274 0.500110
vt 0.751274 1.000000
vt 0.715156 0.500110
vt 0.715156 1.000000
vt 0.682651 0.500110
vt 0.352619 0.497483
vt 0.380263 0.997374
vt 0.352619 0.997374
vt 0.380263 0.497483
vt 0.412768 0.997374
vt 0.412768 0.497483
vt 0.448886 0.997374
vt 0.044307 0.090178
vt 0.324976 0.055531
vt 0.071950 0.441952
vt 0.448886 0.497483
vt 0.487229 0.997374
vt 0.487229 0.497483
vt 0.468885 0.055531
vt 0.595397 0.248741
vt 0.721908 0.441951
vt 0.682651 0.497483
vt 0.000000 1.000000
vt 0.682651 1.000000
vt 0.352619 0.407305
vt 0.324976 0.441952
vt 0.292470 0.469174
vt 0.256353 0.487924
vt 0.218010 0.497483
vt 0.178916 0.497483
vt 0.140574 0.487924
vt 0.104456 0.469174
vt 0.044307 0.407305
vt 0.022587 0.366565
vt 0.007627 0.321297
vt 0.000000 0.273241
vt 0.000000 0.224243
vt 0.007627 0.176187
vt 0.022587 0.130918
vt 0.071950 0.055531
vt 0.104455 0.028310
vt 0.140573 0.009559
vt 0.178916 0.000000
vt 0.218010 0.000000
vt 0.256352 0.009559
vt 0.292470 0.028310
vt 0.352619 0.090178
vt 0.374339 0.130918
vt 0.389299 0.176186
vt 0.396926 0.224243
vt 0.396926 0.273241
vt 0.389299 0.321297
vt 0.374339 0.366565
vt 0.749541 0.090178
vt 0.771260 0.130918
vt 0.786221 0.176186
vt 0.793847 0.224243
vt 0.793847 0.273241
vt 0.786221 0.321297
vt 0.771260 0.366565
vt 0.749541 0.407305
vt 0.689393 0.469174
vt 0.653276 0.487924
vt 0.614933 0.497483
vt 0.575840 0.497483
vt 0.537498 0.487924
vt 0.441232 0.407305
vt 0.501380 0.469173
vt 0.468875 0.441952
vt 0.419513 0.366565
vt 0.404553 0.321297
vt 0.404553 0.176186
vt 0.419513 0.130918
vt 0.441232 0.090178
vt 0.501380 0.028310
vt 0.537498 0.009559
vt 0.575840 0.000000
vt 0.614934 0.000000
vt 0.653276 0.009559
vt 0.689393 0.028310
vt 0.721898 0.055532
vn 0.000000 0.727900 0.685700
vn 0.145300 0.880600 -0.450900
vn 0.000000 0.727900 -0.685700
vn 0.142000 0.713900 0.685700
vn 0.278500 0.672500 -0.685700
vn 0.278500 0.672500 0.685700
vn 0.501300 0.805400 -0.316400
vn 0.404300 0.605200 0.685700
vn 0.515000 0.514600 -0.685500
vn 0.514700 0.514700 0.685700
vn 0.605000 0.404400 -0.685800
vn 0.605300 0.404300 0.685600
vn 0.892600 0.444400 -0.074800
vn 0.672500 0.278500 0.685700
vn 0.648300 0.133300 -0.749600
vn 0.713900 0.142000 0.685700
vn 0.999700 -0.010900 -0.022000
vn 0.727900 0.000000 0.685700
vn 0.973500 -0.212700 -0.083900
vn 0.714000 -0.142000 0.685600
vn 0.901100 -0.397600 -0.172900
vn 0.672500 -0.278500 0.685700
vn 0.713600 -0.590000 -0.377600
vn 0.605300 -0.404300 0.685600
vn 0.514700 -0.514700 -0.685700
vn 0.514700 -0.514700 0.685700
vn 0.404400 -0.605200 -0.685700
vn 0.404300 -0.605200 0.685700
vn 0.278600 -0.672400 -0.685700
vn 0.278500 -0.672500 0.685700
vn 0.181500 -0.846900 -0.499700
vn 0.142000 -0.713900 0.685700
vn 0.000000 -0.727900 -0.685700
vn 0.000000 -0.727900 0.685700
vn -0.145300 -0.880600 -0.450900
vn -0.142000 -0.713900 0.685700
vn -0.278500 -0.672500 -0.685700
vn -0.278500 -0.672500 0.685700
vn -0.493500 -0.811300 -0.313400
vn -0.404300 -0.605200 0.685700
vn -0.515000 -0.514600 -0.685500
vn -0.514700 -0.514700 0.685700
vn -0.796000 -0.592900 -0.121500
vn -0.605200 -0.404400 0.685700
vn -0.919400 -0.392600 -0.022000
vn -0.672400 -0.278500 0.685700
vn -0.654300 -0.101200 -0.749400
vn -0.713900 -0.142000 0.685700
vn -0.999700 0.010900 -0.022000
vn -0.727900 0.000000 0.685700
vn -0.906000 0.337500 -0.255200
vn -0.714000 0.142000 0.685600
vn -0.672200 0.278600 -0.685900
vn -0.672500 0.278500 0.685700
vn -0.605200 0.404400 -0.685700
vn -0.605300 0.404300 0.685600
vn -0.514700 0.514700 -0.685700
vn -0.514700 0.514700 0.685700
vn -0.404400 0.605200 -0.685700
vn -0.404300 0.605200 0.685700
vn -0.278600 0.672400 -0.685700
vn -0.278500 0.672500 0.685700
vn -0.192400 0.841900 -0.504200
vn -0.142000 0.713900 0.685700
vn 0.000500 0.142600 -0.989700
s 1
f 2/1/1 3/2/2 1/3/3
f 4/4/4 5/5/5 3/2/2
f 6/6/6 7/7/7 5/5/5
f 8/8/8 9/9/9 7/7/7
f 10/10/10 11/11/11 9/9/9
f 12/12/12 13/13/13 11/14/11
f 14/15/14 15/16/15 13/13/13
f 16/17/16 17/18/17 15/16/15
f 18/19/18 19/20/19 17/18/17
f 20/21/20 21/22/21 19/20/19
f 22/23/22 23/24/23 21/22/21
f 24/25/24 25/26/25 23/24/23
f 26/27/26 27/28/27 25/26/25
f 28/29/28 29/30/29 27/28/27
f 30/31/30 31/32/31 29/30/29
f 32/33/32 33/34/33 31/32/31
f 34/35/34 35/36/35 33/34/33
f 36/37/36 37/38/37 35/39/35
f 38/40/38 39/41/39 37/38/37
f 40/42/40 41/43/41 39/41/39
f 42/44/42 43/45/43 41/43/41
f 44/46/44 45/47/45 43/45/43
f 46/48/46 47/49/47 45/47/45
f 48/50/48 49/51/49 47/49/47
f 50/52/50 51/53/51 49/51/49
f 52/54/52 53/55/53 51/53/51
f 54/56/54 55/57/55 53/55/53
f 56/58/56 57/59/57 55/60/55
f 58/61/58 59/62/59 57/59/57
f 60/63/60 61/64/61 59/62/59
f 38/65/38 22/66/22 54/67/54
f 62/68/62 63/69/63 61/64/61
f 64/70/64 1/3/3 63/69/63
f 47/71/47 65/72/65 15/73/15
f 2/1/1 4/4/4 3/2/2
f 4/4/4 6/6/6 5/5/5
f 6/6/6 8/8/8 7/7/7
f 8/8/8 10/10/10 9/9/9
f 10/10/10 12/74/12 11/11/11
f 12/12/12 14/15/14 13/13/13
f 14/15/14 16/17/16 15/16/15
f 16/17/16 18/19/18 17/18/17
f 18/19/18 20/21/20 19/20/19
f 20/21/20 22/23/22 21/22/21
f 22/23/22 24/25/24 23/24/23
f 24/25/24 26/27/26 25/26/25
f 26/27/26 28/29/28 27/28/27
f 28/29/28 30/31/30 29/30/29
f 30/31/30 32/33/32 31/32/31
f 32/33/32 34/35/34 33/34/33
f 34/35/34 36/75/36 35/36/35
f 36/37/36 38/40/38 37/38/37
f 38/40/38 40/42/40 39/41/39
f 40/42/40 42/44/42 41/43/41
f 42/44/42 44/46/44 43/45/43
f 44/46/44 46/48/46 45/47/45
f 46/48/46 48/50/48 47/49/47
f 48/50/48 50/52/50 49/51/49
f 50/52/50 52/54/52 51/53/51
f 52/54/52 54/56/54 53/55/53
f 54/56/54 56/76/56 55/57/55
f 56/58/56 58/61/58 57/59/57
f 58/61/58 60/63/60 59/62/59
f 60/63/60 62/68/62 61/64/61
f 6/77/6 4/78/4 2/79/1
f 2/79/1 64/80/64 6/77/6
f 62/81/62 60/82/60 58/83/58
f 58/83/58 56/84/56 54/67/54
f 54/67/54 52/85/52 50/86/50
f 50/86/50 48/87/48 54/67/54
f 46/88/46 44/89/44 38/65/38
f 42/90/42 40/91/40 38/65/38
f 38/65/38 36/92/36 34/93/34
f 34/93/34 32/94/32 30/95/30
f 30/95/30 28/96/28 26/97/26
f 26/97/26 24/98/24 22/66/22
f 22/66/22 20/99/20 18/100/18
f 18/100/18 16/101/16 22/66/22
f 14/102/14 12/103/12 10/104/10
f 10/104/10 8/105/8 6/77/6
f 6/77/6 64/80/64 62/81/62
f 62/81/62 58/83/58 6/77/6
f 54/67/54 48/87/48 46/88/46
f 44/89/44 42/90/42 38/65/38
f 38/65/38 34/93/34 22/66/22
f 30/95/30 26/97/26 22/66/22
f 22/66/22 16/101/16 14/102/14
f 14/102/14 10/104/10 22/66/22
f 6/77/6 58/83/58 54/67/54
f 54/67/54 46/88/46 38/65/38
f 34/93/34 30/95/30 22/66/22
f 22/66/22 10/104/10 6/77/6
f 6/77/6 54/67/54 22/66/22
f 62/68/62 64/70/64 63/69/63
f 64/70/64 2/1/1 1/3/3
f 63/106/63 1/107/3 3/108/2
f 3/108/2 5/109/5 7/110/7
f 7/110/7 9/111/9 11/112/11
f 11/112/11 13/113/13 7/110/7
f 15/73/15 17/114/17 19/115/19
f 19/115/19 21/116/21 15/73/15
f 23/117/23 25/118/25 31/119/31
f 27/120/27 29/121/29 31/119/31
f 31/119/31 33/122/33 35/123/35
f 35/123/35 37/103/37 39/102/39
f 39/102/39 41/124/41 43/125/43
f 43/125/43 45/126/45 47/71/47
f 47/71/47 49/127/49 51/128/51
f 51/128/51 53/129/53 55/130/55
f 55/130/55 57/131/57 63/106/63
f 59/132/59 61/133/61 63/106/63
f 63/106/63 3/108/2 15/73/15
f 7/110/7 13/113/13 15/73/15
f 15/73/15 21/116/21 23/117/23
f 25/118/25 27/120/27 31/119/31
f 31/119/31 35/123/35 47/71/47
f 39/102/39 43/125/43 47/71/47
f 47/71/47 51/128/51 63/106/63
f 57/131/57 59/132/59 63/106/63
f 3/108/2 7/110/7 15/73/15
f 15/73/15 23/117/23 31/119/31
f 35/123/35 39/102/39 47/71/47
f 51/128/51 55/130/55 63/106/63
f 15/73/15 65/72/65 47/71/47
f 31/119/31 47/71/47 15/73/15
f 63/106/63 15/73/15 47/71/47
