# Blender v2.78 (sub 0) OBJ File: 'ship.blend'
# www.blender.org
o Handle_Cylinder
v -0.000039 1.656429 3.774560
v -0.000039 1.656429 4.973454
v 0.015366 1.654912 3.774560
v 0.015366 1.654912 4.973454
v 0.030179 1.650419 3.774560
v 0.030179 1.650419 4.973454
v 0.043831 1.643122 3.774560
v 0.043831 1.643122 4.973454
v 0.055796 1.633302 3.774560
v 0.055796 1.633302 4.973454
v 0.065616 1.621336 3.774560
v 0.065616 1.621336 4.973454
v 0.072913 1.607684 3.774560
v 0.072913 1.607684 4.973454
v 0.077407 1.592872 3.768261
v 0.077407 1.592872 4.973454
v 0.078924 1.577467 3.774560
v 0.078924 1.577467 4.973454
v 0.077407 1.562062 3.774560
v 0.077407 1.562062 4.973454
v 0.072913 1.547249 3.774560
v 0.072913 1.547249 4.973454
v 0.065616 1.533598 3.774560
v 0.065616 1.533598 4.973454
v 0.055796 1.521632 3.774560
v 0.055796 1.521632 4.973454
v 0.043831 1.511812 3.774560
v 0.043831 1.511812 4.973454
v 0.030179 1.504515 3.774560
v 0.030179 1.504515 4.973454
v 0.015366 1.500022 3.774560
v 0.015366 1.500022 4.973454
v -0.000039 1.498505 3.774560
v -0.000039 1.498504 4.973454
v -0.015443 1.500022 3.774560
v -0.015443 1.500022 4.973454
v -0.030256 1.504515 3.774560
v -0.030256 1.504515 4.973454
v -0.043908 1.511812 3.774560
v -0.043908 1.511812 4.973454
v -0.055873 1.521632 3.774560
v -0.055873 1.521632 4.973454
v -0.065693 1.533598 3.774560
v -0.065693 1.533598 4.973454
v -0.072990 1.547249 3.774560
v -0.072990 1.547249 4.973454
v -0.077484 1.562062 3.768261
v -0.077484 1.562062 4.973454
v -0.079001 1.577467 3.774560
v -0.079001 1.577467 4.973454
v -0.077484 1.592872 3.774560
v -0.077484 1.592872 4.973454
v -0.072990 1.607684 3.774560
v -0.072990 1.607684 4.973454
v -0.065693 1.621336 3.774560
v -0.065693 1.621336 4.973454
v -0.055873 1.633302 3.774560
v -0.055873 1.633302 4.973454
v -0.043908 1.643122 3.774560
v -0.043908 1.643122 4.973454
v -0.030256 1.650419 3.774560
v -0.030256 1.650419 4.973454
v -0.015443 1.654912 3.774560
v -0.015443 1.654912 4.973454
v -0.000039 1.577467 3.768261
vn 0.0980 0.9952 0.0000
vn 0.2903 0.9569 0.0000
vn 0.4714 0.8819 0.0000
vn 0.6344 0.7730 0.0000
vn 0.7730 0.6344 0.0000
vn 0.8819 0.4714 0.0000
vn 0.9569 0.2903 0.0000
vn 0.9952 0.0980 0.0000
vn 0.9952 -0.0980 0.0000
vn 0.9569 -0.2903 -0.0000
vn 0.8819 -0.4714 -0.0000
vn 0.7730 -0.6344 0.0000
vn 0.6344 -0.7730 -0.0000
vn 0.4714 -0.8819 -0.0000
vn 0.2903 -0.9569 -0.0000
vn 0.0980 -0.9952 0.0000
vn -0.0980 -0.9952 0.0000
vn -0.2903 -0.9569 0.0000
vn -0.4714 -0.8819 0.0000
vn -0.6344 -0.7730 -0.0000
vn -0.7730 -0.6344 0.0000
vn -0.8819 -0.4714 -0.0000
vn -0.9569 -0.2903 0.0000
vn -0.9952 -0.0980 0.0000
vn -0.9952 0.0980 0.0000
vn -0.9569 0.2903 0.0000
vn -0.8819 0.4714 0.0000
vn -0.7730 0.6344 0.0000
vn -0.6344 0.7730 0.0000
vn -0.4714 0.8819 0.0000
vn 0.0000 0.0000 1.0000
vn -0.2903 0.9569 0.0000
vn -0.0980 0.9952 0.0000
vn 0.0155 -0.0780 -0.9968
vn 0.0003 0.0000 1.0000
vn -0.0001 0.0000 1.0000
vn 0.0002 0.0000 1.0000
vn -0.0002 0.0000 1.0000
vn -0.0003 0.0000 1.0000
vn 0.0001 0.0000 1.0000
vn 0.0000 0.0000 -1.0000
vn -0.0001 0.0000 -1.0000
vn 0.8974 -0.0884 -0.4323
vn 0.5511 -0.1671 -0.8176
vn 0.0001 0.0000 -1.0000
vn -0.7952 -0.4251 -0.4323
vn -0.8974 0.0884 -0.4324
vn -0.0002 0.0000 -1.0000
vn 0.0000 0.1010 -0.9949
vn 0.5631 0.4621 -0.6851
vn 0.2979 -0.1593 -0.9412
vn 0.0000 -0.1010 -0.9949
vn -0.3332 -0.3332 -0.8820
vn -0.1964 0.1964 -0.9607
vn 0.0706 0.1703 -0.9829
vn 0.0810 -0.1212 -0.9893
vn -0.0706 -0.1703 -0.9829
vn -0.0155 0.0780 -0.9968
s off
f 2//1 3//1 1//1
f 4//2 5//2 3//2
f 6//3 7//3 5//3
f 8//4 9//4 7//4
f 10//5 11//5 9//5
f 12//6 13//6 11//6
f 14//7 15//7 13//7
f 16//8 17//8 15//8
f 18//9 19//9 17//9
f 20//10 21//10 19//10
f 22//11 23//11 21//11
f 24//12 25//12 23//12
f 26//13 27//13 25//13
f 28//14 29//14 27//14
f 30//15 31//15 29//15
f 32//16 33//16 31//16
f 34//17 35//17 33//17
f 36//18 37//18 35//18
f 38//19 39//19 37//19
f 40//20 41//20 39//20
f 42//21 43//21 41//21
f 44//22 45//22 43//22
f 46//23 47//23 45//23
f 48//24 49//24 47//24
f 50//25 51//25 49//25
f 52//26 53//26 51//26
f 54//27 55//27 53//27
f 56//28 57//28 55//28
f 58//29 59//29 57//29
f 60//30 61//30 59//30
f 38//31 22//31 54//31
f 62//32 63//32 61//32
f 64//33 1//33 63//33
f 31//34 65//34 15//34
f 2//1 4//1 3//1
f 4//2 6//2 5//2
f 6//3 8//3 7//3
f 8//4 10//4 9//4
f 10//5 12//5 11//5
f 12//6 14//6 13//6
f 14//7 16//7 15//7
f 16//8 18//8 17//8
f 18//9 20//9 19//9
f 20//10 22//10 21//10
f 22//11 24//11 23//11
f 24//12 26//12 25//12
f 26//13 28//13 27//13
f 28//14 30//14 29//14
f 30//15 32//15 31//15
f 32//16 34//16 33//16
f 34//17 36//17 35//17
f 36//18 38//18 37//18
f 38//19 40//19 39//19
f 40//20 42//20 41//20
f 42//21 44//21 43//21
f 44//22 46//22 45//22
f 46//23 48//23 47//23
f 48//24 50//24 49//24
f 50//25 52//25 51//25
f 52//26 54//26 53//26
f 54//27 56//27 55//27
f 56//28 58//28 57//28
f 58//29 60//29 59//29
f 60//30 62//30 61//30
f 6//31 4//31 2//31
f 2//31 64//31 6//31
f 62//31 60//31 58//31
f 58//31 56//31 54//31
f 54//35 52//35 50//35
f 50//31 48//31 54//31
f 46//36 44//36 38//36
f 42//37 40//37 38//37
f 38//31 36//31 34//31
f 34//36 32//36 30//36
f 30//38 28//38 26//38
f 26//31 24//31 22//31
f 22//39 20//39 18//39
f 18//38 16//38 22//38
f 14//37 12//37 10//37
f 10//38 8//38 6//38
f 6//31 64//31 62//31
f 62//31 58//31 6//31
f 54//40 48//40 46//40
f 44//31 42//31 38//31
f 38//31 34//31 22//31
f 30//31 26//31 22//31
f 22//31 16//31 14//31
f 14//40 10//40 22//40
f 6//31 58//31 54//31
f 54//31 46//31 38//31
f 34//31 30//31 22//31
f 22//31 10//31 6//31
f 6//31 54//31 22//31
f 62//32 64//32 63//32
f 64//33 2//33 1//33
f 63//41 1//41 3//41
f 3//42 5//42 7//42
f 7//41 9//41 11//41
f 11//41 13//41 7//41
f 15//43 17//43 19//43
f 19//44 21//44 15//44
f 23//41 25//41 31//41
f 27//45 29//45 31//45
f 31//41 33//41 35//41
f 35//42 37//42 39//42
f 39//41 41//41 43//41
f 43//46 45//46 47//46
f 47//47 49//47 51//47
f 51//48 53//48 55//48
f 55//41 57//41 63//41
f 59//45 61//45 63//45
f 63//49 3//49 15//49
f 7//50 13//50 15//50
f 15//51 21//51 23//51
f 25//41 27//41 31//41
f 31//52 35//52 47//52
f 39//53 43//53 47//53
f 47//54 51//54 63//54
f 57//41 59//41 63//41
f 3//55 7//55 15//55
f 15//56 23//56 31//56
f 35//57 39//57 47//57
f 51//41 55//41 63//41
f 63//58 65//58 47//58
f 31//34 47//34 65//34
f 63//58 15//58 65//58
